<svg height="232pt" preserveAspectRatio="xMidYMid meet" viewBox="0 0 232 232" width="232pt" xmlns="http://www.w3.org/2000/svg"><g transform="matrix(.1 0 0 -.1 0 232)"><path d="m1385 2213c-22-20-68-49-103-65-73-35-137-40-282-20-189 26-321-20-336-118-5-33-9-36-40-36-64 0-130-93-188-266-29-86-48-221-41-298 9-114 18-162 30-166 7-3 30-1 52 5l39 11 22 96c21 90 68 198 111 253l18 23 6-47c17-118 89-171 231-169 65 1 119 11 276 54 161 45 209 54 275 54 144 0 205-61 205-204v-57l61-12c34-7 62-11 64-9 10 10 25 144 25 223 0 173-46 299-144 400l-55 56-54-31c-62-35-89-40-37-7 75 47 141 138 156 215l7 32-58-35c-66-39-139-58-207-53l-47 3 20 45c19 42 44 148 37 155-2 2-21-13-43-32z"/><path d="m516 1230c-49-10-95-21-102-24-16-6-19-76-4-76 17 0 50-63 50-94 0-68 33-149 79-197 56-57 103-73 222-73 73 0 93 4 142 28 97 47 167 157 167 261 0 44 1 45 33 45s32 0 33-53c1-75 36-148 99-206 65-58 120-76 231-75 170 2 255 80 279 254 8 63 27 105 50 114 11 4 15 16 13 38-3 32-5 33-78 50-170 41-351 33-479-20-89-37-211-38-285-4-111 52-292 65-450 32zm385-59c78-30 114-70 113-126-1-62-47-150-97-186-53-39-108-52-188-47-131 10-198 78-207 212-6 91 12 129 71 157 58 27 226 22 308-10zm708 11c73-36 97-114 67-215-22-76-64-123-129-142-100-30-201-14-266 41-75 64-114 187-76 241 40 57 145 91 280 92 67 1 99-4 124-17z"/><path d="m783 1105c-29-20-46-75-34-107 11-30 57-68 81-68 35 0 78 22 89 46 14 32 14 85-2 105-30 39-96 51-134 24z"/><path d="m1473 1105c-29-20-46-75-34-106 5-13 19-35 31-48 19-19 30-22 64-18 54 7 86 44 86 97 0 70-89 116-147 75z"/><path d="m459 537c-25-7-59-23-76-35-89-63-92-230-6-301 60-49 134-59 231-29l32 10v74c0 59 3 74 15 74 8 0 15 5 15 10 0 6-33 10-80 10s-80-4-80-10c0-5 11-10 25-10 25 0 25-1 25-80v-80h-35c-77 0-125 71-125 182 1 116 53 183 138 176 34-3 37-6 51-50 10-34 20-48 33-48 15 0 18 8 18 45 0 38-4 47-23 54-45 17-112 20-158 8z"/><path d="m960 538c-77-21-124-92-124-188 0-84 31-145 91-178 29-16 45-33 53-56 15-48 84-73 150-57l35 9-41 1c-44 1-70 21-76 58-2 18 6 27 42 45 71 36 105 116 94 215-8 71-63 135-128 152-51 13-49 13-96-1zm89-18c32-16 51-83 51-173-1-134-39-192-116-173-77 20-90 288-17 344 20 14 57 16 82 2z"/><path d="m1367 525c18-13 24-26 38-85 2-8 22-72 43-142 22-70 37-130 34-133s6-5 21-5c24 0 28 7 52 88 48 162 62 198 69 181 4-9 24-72 44-140 31-103 41-125 58-127 18-3 24 10 53 110 74 260 70 248 96 248 14 0 25 5 25 10 0 6-27 10-60 10s-60-4-60-10c0-5 12-10 26-10 22 0 24-3 18-22-4-13-20-72-35-131-15-60-29-111-32-113-3-4-48 141-62 203-2 10-7 28-11 41-5 19-3 22 20 22 14 0 26 5 26 10 0 6-33 10-80 10-44 0-80-4-80-9s11-11 23-13l24-3-29-100c-16-55-31-111-34-124-11-52-18-41-46 65-42 159-42 164-18 164 11 0 20 5 20 10 0 6-34 10-82 10-76 0-81-1-61-15z"/></g></svg>